<svg width="26" height="26" viewBox="0 0 26 26" fill="none" xmlns="http://www.w3.org/2000/svg">
<g clip-path="url(#clip0_121_265)">
<path d="M5.93754 2.15799C5.84161 2.03459 5.72052 1.93301 5.58232 1.86001C5.44411 1.787 5.29196 1.74423 5.13596 1.73455C4.97996 1.72487 4.82368 1.74849 4.67751 1.80385C4.53134 1.8592 4.39862 1.94503 4.28816 2.05562L2.60791 3.73749C1.82304 4.52399 1.53379 5.63712 1.87666 6.61374C3.29974 10.6561 5.61464 14.3261 8.64966 17.3517C11.6753 20.3867 15.3454 22.7016 19.3877 24.1247C20.3643 24.4676 21.4774 24.1784 22.2639 23.3935L23.9442 21.7132C24.0548 21.6028 24.1406 21.4701 24.1959 21.3239C24.2513 21.1777 24.2749 21.0214 24.2652 20.8654C24.2555 20.7094 24.2128 20.5573 24.1398 20.4191C24.0668 20.2809 23.9652 20.1598 23.8418 20.0639L20.0929 17.1486C19.9611 17.0464 19.8077 16.9754 19.6445 16.941C19.4812 16.9067 19.3123 16.9099 19.1504 16.9504L15.5917 17.8392C15.1166 17.958 14.619 17.9517 14.1471 17.821C13.6752 17.6902 13.2453 17.4396 12.899 17.0934L8.90804 13.1007C8.56154 12.7547 8.31057 12.3248 8.17957 11.8529C8.04858 11.381 8.04202 10.8833 8.16054 10.4081L9.05104 6.84937C9.09151 6.68751 9.0947 6.51857 9.06036 6.35531C9.02601 6.19204 8.95504 6.0387 8.85279 5.90687L5.93754 2.15799ZM3.06129 0.830366C3.34566 0.545909 3.68728 0.325203 4.06349 0.182903C4.4397 0.0406032 4.84187 -0.0200342 5.24331 0.00501728C5.64475 0.0300687 6.03626 0.140236 6.39186 0.328203C6.74745 0.516171 7.05899 0.777637 7.30579 1.09524L10.221 4.84249C10.7557 5.52987 10.9442 6.42524 10.7329 7.27024L9.84404 10.829C9.79808 11.0133 9.80056 11.2064 9.85125 11.3895C9.90193 11.5725 9.99909 11.7394 10.1333 11.8739L14.1259 15.8665C14.2605 16.001 14.4277 16.0983 14.6111 16.149C14.7945 16.1997 14.9879 16.202 15.1724 16.1557L18.7295 15.2669C19.1465 15.1626 19.5818 15.1545 20.0024 15.2432C20.423 15.3319 20.8179 15.515 21.1573 15.7787L24.9045 18.694C26.2517 19.7421 26.3752 21.7327 25.1694 22.9369L23.4892 24.6171C22.2867 25.8196 20.4894 26.3477 18.814 25.7579C14.526 24.2491 10.6326 21.7942 7.42279 18.5754C4.20413 15.366 1.74928 11.4732 0.240289 7.18574C-0.347961 5.51199 0.180164 3.71312 1.38266 2.51062L3.06291 0.830366H3.06129Z" fill="#C4C4C4"/>
</g>
<defs>
<clipPath id="clip0_121_265">
<rect width="26" height="26" fill="white"/>
</clipPath>
</defs>
</svg>
