<svg width="84" height="13" viewBox="0 0 84 13" fill="none" xmlns="http://www.w3.org/2000/svg">
<path d="M11.3043 6.448C11.3043 7.35467 11.155 8.17067 10.8563 8.896C10.5576 9.61067 10.1576 10.2187 9.65631 10.72C9.15498 11.2107 8.57365 11.5893 7.91231 11.856C7.25098 12.112 6.55765 12.24 5.83231 12.24C5.10698 12.24 4.41365 12.112 3.75231 11.856C3.09098 11.5893 2.50965 11.2107 2.00831 10.72C1.50698 10.2187 1.10698 9.61067 0.808313 8.896C0.509646 8.17067 0.360313 7.35467 0.360313 6.448C0.360313 5.54133 0.509646 4.73067 0.808313 4.016C1.10698 3.29067 1.50698 2.68267 2.00831 2.192C2.50965 1.69067 3.09098 1.312 3.75231 1.056C4.41365 0.789333 5.10698 0.655999 5.83231 0.655999C6.55765 0.655999 7.25098 0.789333 7.91231 1.056C8.57365 1.312 9.15498 1.69067 9.65631 2.192C10.1576 2.68267 10.5576 3.29067 10.8563 4.016C11.155 4.73067 11.3043 5.54133 11.3043 6.448ZM10.1363 6.448C10.1363 5.744 10.0296 5.104 9.81631 4.528C9.60298 3.94133 9.30431 3.44 8.92031 3.024C8.54698 2.608 8.09365 2.288 7.56031 2.064C7.03765 1.84 6.46165 1.728 5.83231 1.728C5.20298 1.728 4.62165 1.84 4.08831 2.064C3.56565 2.288 3.11231 2.608 2.72831 3.024C2.35498 3.44 2.06165 3.94133 1.84831 4.528C1.63498 5.104 1.52831 5.744 1.52831 6.448C1.52831 7.152 1.63498 7.79733 1.84831 8.384C2.06165 8.96 2.35498 9.456 2.72831 9.872C3.11231 10.288 3.56565 10.608 4.08831 10.832C4.62165 11.056 5.20298 11.168 5.83231 11.168C6.46165 11.168 7.03765 11.056 7.56031 10.832C8.09365 10.608 8.54698 10.288 8.92031 9.872C9.30431 9.456 9.60298 8.96 9.81631 8.384C10.0296 7.79733 10.1363 7.152 10.1363 6.448ZM6.02431 9.76C5.56565 9.76 5.14965 9.68533 4.77631 9.536C4.40298 9.38667 4.07765 9.17333 3.80031 8.896C3.53365 8.61867 3.32565 8.27733 3.17631 7.872C3.02698 7.456 2.95231 6.98133 2.95231 6.448C2.95231 5.92533 3.03231 5.46133 3.19231 5.056C3.36298 4.65067 3.58698 4.30933 3.86431 4.032C4.14165 3.744 4.46698 3.52533 4.84031 3.376C5.21365 3.22667 5.60831 3.152 6.02431 3.152C6.30165 3.152 6.55231 3.17333 6.77631 3.216C7.01098 3.25867 7.21365 3.312 7.38431 3.376C7.55498 3.42933 7.69365 3.488 7.80031 3.552C7.91765 3.60533 7.99765 3.648 8.04031 3.68L7.67231 4.64C7.54431 4.56533 7.33631 4.48 7.04831 4.384C6.77098 4.27733 6.44565 4.224 6.07231 4.224C5.52831 4.224 5.07498 4.416 4.71231 4.8C4.34965 5.17333 4.16831 5.72267 4.16831 6.448C4.16831 7.10933 4.33365 7.65333 4.66431 8.08C4.99498 8.496 5.48031 8.704 6.12031 8.704C6.53631 8.704 6.87765 8.66133 7.14431 8.576C7.42165 8.48 7.63498 8.39467 7.78431 8.32L8.08831 9.28C8.03498 9.312 7.94431 9.36 7.81631 9.424C7.69898 9.47733 7.54965 9.53067 7.36831 9.584C7.18698 9.62667 6.97898 9.66933 6.74431 9.712C6.52031 9.744 6.28031 9.76 6.02431 9.76ZM26.5347 6.448C26.5347 7.408 26.3854 8.24533 26.0867 8.96C25.788 9.664 25.3667 10.2507 24.8227 10.72C24.2787 11.1787 23.628 11.5253 22.8707 11.76C22.1134 11.984 21.2814 12.096 20.3747 12.096C19.9267 12.096 19.4307 12.0747 18.8867 12.032C18.3534 12 17.868 11.9307 17.4307 11.824V1.072C17.868 0.965333 18.3534 0.896 18.8867 0.863999C19.4307 0.821333 19.9267 0.799999 20.3747 0.799999C21.2814 0.799999 22.1134 0.917333 22.8707 1.152C23.628 1.376 24.2787 1.72267 24.8227 2.192C25.3667 2.65067 25.788 3.23733 26.0867 3.952C26.3854 4.656 26.5347 5.488 26.5347 6.448ZM20.5027 10.736C21.9747 10.736 23.0734 10.3627 23.7987 9.616C24.524 8.85867 24.8867 7.80267 24.8867 6.448C24.8867 5.09333 24.524 4.04267 23.7987 3.296C23.0734 2.53867 21.9747 2.16 20.5027 2.16C20.0654 2.16 19.724 2.16533 19.4787 2.176C19.244 2.18667 19.0787 2.19733 18.9827 2.208V10.688C19.0787 10.6987 19.244 10.7093 19.4787 10.72C19.724 10.7307 20.0654 10.736 20.5027 10.736ZM31.2411 10.896C32.8624 10.896 33.6731 10.3413 33.6731 9.232C33.6731 8.89067 33.5984 8.60267 33.4491 8.368C33.3104 8.12267 33.1184 7.91467 32.8731 7.744C32.6277 7.56267 32.3451 7.408 32.0251 7.28C31.7157 7.152 31.3851 7.024 31.0331 6.896C30.6277 6.75733 30.2437 6.60267 29.8811 6.432C29.5184 6.25067 29.2037 6.04267 28.9371 5.808C28.6704 5.56267 28.4571 5.27467 28.2971 4.944C28.1477 4.61333 28.0731 4.21333 28.0731 3.744C28.0731 2.77333 28.4037 2.016 29.0651 1.472C29.7264 0.927999 30.6384 0.655999 31.8011 0.655999C32.4731 0.655999 33.0811 0.730666 33.6251 0.879999C34.1797 1.01867 34.5851 1.17333 34.8411 1.344L34.3451 2.608C34.1211 2.46933 33.7851 2.336 33.3371 2.208C32.8997 2.06933 32.3877 2 31.8011 2C31.5024 2 31.2251 2.032 30.9691 2.096C30.7131 2.16 30.4891 2.256 30.2971 2.384C30.1051 2.512 29.9504 2.67733 29.8331 2.88C29.7264 3.072 29.6731 3.30133 29.6731 3.568C29.6731 3.86667 29.7317 4.11733 29.8491 4.32C29.9664 4.52267 30.1317 4.704 30.3451 4.864C30.5584 5.01333 30.8037 5.152 31.0811 5.28C31.3691 5.408 31.6837 5.536 32.0251 5.664C32.5051 5.856 32.9424 6.048 33.3371 6.24C33.7424 6.432 34.0891 6.66133 34.3771 6.928C34.6757 7.19467 34.9051 7.51467 35.0651 7.888C35.2251 8.25067 35.3051 8.69333 35.3051 9.216C35.3051 10.1867 34.9477 10.9333 34.2331 11.456C33.5291 11.9787 32.5317 12.24 31.2411 12.24C30.8037 12.24 30.3984 12.208 30.0251 12.144C29.6624 12.0907 29.3371 12.0267 29.0491 11.952C28.7611 11.8667 28.5104 11.7813 28.2971 11.696C28.0944 11.6 27.9344 11.52 27.8171 11.456L28.2811 10.176C28.5264 10.3147 28.8997 10.4693 29.4011 10.64C29.9024 10.8107 30.5157 10.896 31.2411 10.896ZM44.5887 0.912V2.256H41.1007V12H39.5487V2.256H36.0607V0.912H44.5887ZM56.0267 3.744C56.0267 4.128 55.9467 4.50133 55.7867 4.864C55.6374 5.216 55.4347 5.568 55.1787 5.92C54.9227 6.26133 54.6347 6.60267 54.3147 6.944C53.9947 7.27467 53.6747 7.6 53.3547 7.92C53.1734 8.10133 52.96 8.31467 52.7147 8.56C52.48 8.80533 52.256 9.06133 52.0427 9.328C51.8294 9.59467 51.648 9.85067 51.4987 10.096C51.36 10.3413 51.2907 10.5547 51.2907 10.736H56.3947V12H49.6747C49.664 11.936 49.6587 11.872 49.6587 11.808C49.6587 11.744 49.6587 11.6853 49.6587 11.632C49.6587 11.1307 49.7387 10.6667 49.8987 10.24C50.0694 9.80267 50.288 9.392 50.5547 9.008C50.8214 8.624 51.12 8.26133 51.4507 7.92C51.7814 7.57867 52.1067 7.248 52.4267 6.928C52.6934 6.672 52.944 6.42133 53.1787 6.176C53.424 5.92 53.6374 5.66933 53.8187 5.424C54.0107 5.168 54.16 4.90667 54.2667 4.64C54.384 4.37333 54.4427 4.09067 54.4427 3.792C54.4427 3.472 54.3894 3.2 54.2827 2.976C54.1867 2.752 54.0534 2.56533 53.8827 2.416C53.712 2.26667 53.5094 2.16 53.2747 2.096C53.0507 2.02133 52.8107 1.984 52.5547 1.984C52.2454 1.984 51.9627 2.02667 51.7067 2.112C51.4507 2.19733 51.2214 2.29867 51.0187 2.416C50.816 2.52267 50.6454 2.64 50.5067 2.768C50.368 2.88533 50.2614 2.976 50.1867 3.04L49.4507 1.984C49.5467 1.87733 49.6907 1.74933 49.8827 1.6C50.0747 1.44 50.304 1.29067 50.5707 1.152C50.8374 1.01333 51.136 0.895999 51.4667 0.799999C51.7974 0.703999 52.1547 0.655999 52.5387 0.655999C53.7014 0.655999 54.5707 0.927999 55.1467 1.472C55.7334 2.00533 56.0267 2.76267 56.0267 3.744ZM58.3859 6.448C58.3859 4.592 58.7113 3.16267 59.3619 2.16C60.0233 1.15733 60.9353 0.655999 62.0979 0.655999C63.2606 0.655999 64.1673 1.15733 64.8179 2.16C65.4793 3.16267 65.8099 4.592 65.8099 6.448C65.8099 8.304 65.4793 9.73333 64.8179 10.736C64.1673 11.7387 63.2606 12.24 62.0979 12.24C60.9353 12.24 60.0233 11.7387 59.3619 10.736C58.7113 9.73333 58.3859 8.304 58.3859 6.448ZM64.2419 6.448C64.2419 5.84 64.2046 5.264 64.1299 4.72C64.0659 4.176 63.9486 3.70133 63.7779 3.296C63.6179 2.89067 63.3993 2.57067 63.1219 2.336C62.8446 2.09067 62.5033 1.968 62.0979 1.968C61.6926 1.968 61.3513 2.09067 61.0739 2.336C60.7966 2.57067 60.5726 2.89067 60.4019 3.296C60.2419 3.70133 60.1246 4.176 60.0499 4.72C59.9859 5.264 59.9539 5.84 59.9539 6.448C59.9539 7.056 59.9859 7.632 60.0499 8.176C60.1246 8.72 60.2419 9.19467 60.4019 9.6C60.5726 10.0053 60.7966 10.3307 61.0739 10.576C61.3513 10.8107 61.6926 10.928 62.0979 10.928C62.5033 10.928 62.8446 10.8107 63.1219 10.576C63.3993 10.3307 63.6179 10.0053 63.7779 9.6C63.9486 9.19467 64.0659 8.72 64.1299 8.176C64.2046 7.632 64.2419 7.056 64.2419 6.448ZM74.0892 3.744C74.0892 4.128 74.0092 4.50133 73.8492 4.864C73.6999 5.216 73.4972 5.568 73.2412 5.92C72.9852 6.26133 72.6972 6.60267 72.3772 6.944C72.0572 7.27467 71.7372 7.6 71.4172 7.92C71.2359 8.10133 71.0225 8.31467 70.7772 8.56C70.5425 8.80533 70.3185 9.06133 70.1052 9.328C69.8919 9.59467 69.7105 9.85067 69.5612 10.096C69.4225 10.3413 69.3532 10.5547 69.3532 10.736H74.4572V12H67.7372C67.7265 11.936 67.7212 11.872 67.7212 11.808C67.7212 11.744 67.7212 11.6853 67.7212 11.632C67.7212 11.1307 67.8012 10.6667 67.9612 10.24C68.1319 9.80267 68.3505 9.392 68.6172 9.008C68.8839 8.624 69.1825 8.26133 69.5132 7.92C69.8439 7.57867 70.1692 7.248 70.4892 6.928C70.7559 6.672 71.0065 6.42133 71.2412 6.176C71.4865 5.92 71.6999 5.66933 71.8812 5.424C72.0732 5.168 72.2225 4.90667 72.3292 4.64C72.4465 4.37333 72.5052 4.09067 72.5052 3.792C72.5052 3.472 72.4519 3.2 72.3452 2.976C72.2492 2.752 72.1159 2.56533 71.9452 2.416C71.7745 2.26667 71.5719 2.16 71.3372 2.096C71.1132 2.02133 70.8732 1.984 70.6172 1.984C70.3079 1.984 70.0252 2.02667 69.7692 2.112C69.5132 2.19733 69.2839 2.29867 69.0812 2.416C68.8785 2.52267 68.7079 2.64 68.5692 2.768C68.4305 2.88533 68.3239 2.976 68.2492 3.04L67.5132 1.984C67.6092 1.87733 67.7532 1.74933 67.9452 1.6C68.1372 1.44 68.3665 1.29067 68.6332 1.152C68.8999 1.01333 69.1985 0.895999 69.5292 0.799999C69.8599 0.703999 70.2172 0.655999 70.6012 0.655999C71.7639 0.655999 72.6332 0.927999 73.2092 1.472C73.7959 2.00533 74.0892 2.76267 74.0892 3.744ZM83.1204 3.744C83.1204 4.128 83.0404 4.50133 82.8804 4.864C82.7311 5.216 82.5284 5.568 82.2724 5.92C82.0164 6.26133 81.7284 6.60267 81.4084 6.944C81.0884 7.27467 80.7684 7.6 80.4484 7.92C80.2671 8.10133 80.0538 8.31467 79.8084 8.56C79.5738 8.80533 79.3498 9.06133 79.1364 9.328C78.9231 9.59467 78.7418 9.85067 78.5924 10.096C78.4538 10.3413 78.3844 10.5547 78.3844 10.736H83.4884V12H76.7684C76.7578 11.936 76.7524 11.872 76.7524 11.808C76.7524 11.744 76.7524 11.6853 76.7524 11.632C76.7524 11.1307 76.8324 10.6667 76.9924 10.24C77.1631 9.80267 77.3818 9.392 77.6484 9.008C77.9151 8.624 78.2138 8.26133 78.5444 7.92C78.8751 7.57867 79.2004 7.248 79.5204 6.928C79.7871 6.672 80.0378 6.42133 80.2724 6.176C80.5178 5.92 80.7311 5.66933 80.9124 5.424C81.1044 5.168 81.2538 4.90667 81.3604 4.64C81.4778 4.37333 81.5364 4.09067 81.5364 3.792C81.5364 3.472 81.4831 3.2 81.3764 2.976C81.2804 2.752 81.1471 2.56533 80.9764 2.416C80.8058 2.26667 80.6031 2.16 80.3684 2.096C80.1444 2.02133 79.9044 1.984 79.6484 1.984C79.3391 1.984 79.0564 2.02667 78.8004 2.112C78.5444 2.19733 78.3151 2.29867 78.1124 2.416C77.9098 2.52267 77.7391 2.64 77.6004 2.768C77.4618 2.88533 77.3551 2.976 77.2804 3.04L76.5444 1.984C76.6404 1.87733 76.7844 1.74933 76.9764 1.6C77.1684 1.44 77.3978 1.29067 77.6644 1.152C77.9311 1.01333 78.2298 0.895999 78.5604 0.799999C78.8911 0.703999 79.2484 0.655999 79.6324 0.655999C80.7951 0.655999 81.6644 0.927999 82.2404 1.472C82.8271 2.00533 83.1204 2.76267 83.1204 3.744Z" fill="white"/>
</svg>
