<svg width="51" height="57" viewBox="0 0 51 57" fill="none" xmlns="http://www.w3.org/2000/svg">
<path d="M11.8607 18.9587V56.7063H1.11849V18.9587H11.8607ZM12.5443 7.30301C12.566 9.15675 12.018 10.7058 10.9004 11.95C9.78277 13.1943 8.3125 13.8165 6.48958 13.8165H6.42448C4.64497 13.8165 3.21267 13.1943 2.1276 11.95C1.04253 10.7058 0.5 9.15675 0.5 7.30301C0.5 5.42389 1.05881 3.86853 2.17643 2.63694C3.29405 1.40535 4.75347 0.789551 6.55469 0.789551C8.3559 0.789551 9.79904 1.40535 10.8841 2.63694C11.9692 3.86853 12.5226 5.42389 12.5443 7.30301ZM50.5 35.0709V56.7063H39.7904V36.5184C39.7904 33.852 39.3509 31.7634 38.472 30.2525C37.5931 28.7416 36.2205 27.9861 34.3542 27.9861C32.987 27.9861 31.8422 28.4242 30.9199 29.3002C29.9976 30.1763 29.3086 31.2619 28.8529 32.557C28.6141 33.3188 28.4948 34.3472 28.4948 35.6423V56.7063H17.7852C17.8286 46.5742 17.8503 38.3594 17.8503 32.0618C17.8503 25.7642 17.8394 22.0059 17.8177 20.787L17.7852 18.9587H28.4948V24.4437H28.4297C28.8637 23.6311 29.3086 22.9201 29.7643 22.3106C30.2201 21.7012 30.8331 21.041 31.6035 20.3299C32.3739 19.6189 33.3179 19.0666 34.4355 18.673C35.5532 18.2794 36.7956 18.0826 38.1628 18.0826C41.8737 18.0826 44.8576 19.5237 47.1146 22.4059C49.3715 25.288 50.5 29.5097 50.5 35.0709Z" fill="white"/>
</svg>
