<svg width="28" height="36" viewBox="0 0 28 36" fill="none" xmlns="http://www.w3.org/2000/svg">
<path d="M7.72021 26.668C8.88114 27.9948 9.93774 29.3925 10.8824 30.8509C11.6889 32.2224 12.0251 33.1524 12.6145 34.805C12.976 35.718 13.3027 35.9905 14.0051 35.9905C14.7705 35.9905 15.1178 35.5269 15.3861 34.81C15.9432 33.2493 16.3804 32.0583 17.0701 30.9329C18.4235 28.7601 20.1053 26.8294 21.7577 24.9737C22.2051 24.4486 25.0974 21.3889 26.3995 18.9748C26.3995 18.9748 27.9999 16.3229 27.9999 12.6192C27.9999 9.15473 26.4216 6.75195 26.4216 6.75195L21.8776 7.84333L19.1181 14.3617L18.4354 15.2605L18.2989 15.4233L18.1173 15.6272L17.7986 15.9527L17.3431 16.3611L14.8858 18.1566L8.74222 21.3379L7.72021 26.668Z" fill="#34A853"/>
<path d="M1.37939 18.5289C2.87882 21.6005 5.77025 24.3006 7.72653 26.6701L18.1173 15.6314C18.1173 15.6314 16.6534 17.3484 13.998 17.3484C11.0402 17.3484 8.65064 15.2301 8.65064 12.559C8.65064 10.7273 9.87936 9.46899 9.87936 9.46899L2.82588 11.164L1.37939 18.5288V18.5289Z" fill="#FBBC04"/>
<path d="M18.2333 0.567725C21.6843 1.56562 24.6381 3.66059 26.4247 6.74982L18.1204 15.625C18.1204 15.625 19.3492 14.344 19.3492 12.5236C19.3492 9.79039 16.7829 7.7485 14.0106 7.7485C11.389 7.7485 9.8833 9.46267 9.8833 9.46267V3.87139L18.2333 0.567627V0.567725Z" fill="#4285F4"/>
<path d="M3.28271 4.48921C5.34389 2.27752 8.97076 0 13.971 0C16.3969 0 18.2245 0.571194 18.2245 0.571194L9.8753 9.46751H3.95975L3.28271 4.48931V4.48921Z" fill="#1A73E8"/>
<path d="M1.37944 18.529C1.37944 18.529 0 16.1063 0 12.5965C0 9.27932 1.43784 6.3797 3.28289 4.48926L9.88017 9.46834L1.37944 18.529Z" fill="#EA4335"/>
</svg>
