<svg width="26" height="26" viewBox="0 0 26 26" fill="none" xmlns="http://www.w3.org/2000/svg">
<path d="M12.9998 2.1665C10.138 2.203 7.40366 3.35608 5.37987 5.37987C3.35608 7.40366 2.203 10.138 2.1665 12.9998C2.17988 14.667 2.57787 16.3086 3.32947 17.7968C4.08108 19.2849 5.16603 20.5796 6.49984 21.5798V21.6665H6.60817C8.44245 23.0721 10.6889 23.8339 12.9998 23.8339C15.3108 23.8339 17.5572 23.0721 19.3915 21.6665H19.4998V21.5798C20.8336 20.5796 21.9186 19.2849 22.6702 17.7968C23.4218 16.3086 23.8198 14.667 23.8332 12.9998C23.7967 10.138 22.6436 7.40366 20.6198 5.37987C18.596 3.35608 15.8617 2.203 12.9998 2.1665ZM8.74234 20.5073C8.90049 19.7831 9.3015 19.1346 9.87885 18.6696C10.4562 18.2046 11.1752 17.9509 11.9165 17.9507H14.0832C14.8245 17.9509 15.5435 18.2046 16.1208 18.6696C16.6982 19.1346 17.0992 19.7831 17.2573 20.5073C15.9669 21.2665 14.497 21.6669 12.9998 21.6669C11.5027 21.6669 10.0327 21.2665 8.74234 20.5073ZM19.0773 19.1098C18.6653 18.125 17.9714 17.2839 17.0828 16.6922C16.1943 16.1005 15.1507 15.7845 14.0832 15.784H11.9165C10.849 15.7845 9.80538 16.1005 8.91684 16.6922C8.02829 17.2839 7.33441 18.125 6.92234 19.1098C6.11056 18.3114 5.46406 17.3608 5.0198 16.3125C4.57554 15.2641 4.34222 14.1384 4.33317 12.9998C4.36127 10.71 5.28338 8.52191 6.90265 6.90265C8.52191 5.28338 10.71 4.36127 12.9998 4.33317C15.2897 4.36127 17.4778 5.28338 19.097 6.90265C20.7163 8.52191 21.6384 10.71 21.6665 12.9998C21.6575 14.1384 21.4241 15.2641 20.9799 16.3125C20.5356 17.3608 19.8891 18.3114 19.0773 19.1098Z" fill="#C4C4C4"/>
<path d="M13 6.50017C12.4273 6.48683 11.8578 6.5898 11.3261 6.80285C10.7943 7.01589 10.3113 7.33459 9.90617 7.73967C9.5011 8.14475 9.1824 8.62778 8.96935 9.15956C8.7563 9.69133 8.65333 10.2608 8.66668 10.8335C8.65333 11.4062 8.7563 11.9757 8.96935 12.5075C9.1824 13.0392 9.5011 13.5223 9.90617 13.9273C10.3113 14.3324 10.7943 14.6511 11.3261 14.8642C11.8578 15.0772 12.4273 15.1802 13 15.1668C13.5727 15.1802 14.1422 15.0772 14.674 14.8642C15.2057 14.6511 15.6888 14.3324 16.0938 13.9273C16.4989 13.5223 16.8176 13.0392 17.0307 12.5075C17.2437 11.9757 17.3467 11.4062 17.3333 10.8335C17.3467 10.2608 17.2437 9.69133 17.0307 9.15956C16.8176 8.62778 16.4989 8.14475 16.0938 7.73967C15.6888 7.33459 15.2057 7.01589 14.674 6.80285C14.1422 6.5898 13.5727 6.48683 13 6.50017ZM13 13.0002C12.7118 13.0141 12.4238 12.9676 12.1547 12.8636C11.8855 12.7597 11.641 12.6006 11.437 12.3965C11.2329 12.1925 11.0738 11.948 10.9699 11.6789C10.8659 11.4097 10.8194 11.1217 10.8333 10.8335C10.8194 10.5453 10.8659 10.2573 10.9699 9.98815C11.0738 9.71897 11.2329 9.47451 11.437 9.27047C11.641 9.06643 11.8855 8.90732 12.1547 8.80337C12.4238 8.69941 12.7118 8.65291 13 8.66684C13.2882 8.65291 13.5762 8.69941 13.8454 8.80337C14.1145 8.90732 14.359 9.06643 14.563 9.27047C14.7671 9.47451 14.9262 9.71897 15.0301 9.98815C15.1341 10.2573 15.1806 10.5453 15.1667 10.8335C15.1806 11.1217 15.1341 11.4097 15.0301 11.6789C14.9262 11.948 14.7671 12.1925 14.563 12.3965C14.359 12.6006 14.1145 12.7597 13.8454 12.8636C13.5762 12.9676 13.2882 13.0141 13 13.0002Z" fill="#C4C4C4"/>
</svg>
