<svg width="25" height="25" viewBox="0 0 25 25" fill="none" xmlns="http://www.w3.org/2000/svg">
<path d="M12.4022 15.2344C13.1274 15.2344 13.8229 14.9463 14.3357 14.4335C14.8485 13.9207 15.1366 13.2252 15.1366 12.5C15.1366 12.42 15.1329 12.3406 15.1261 12.2622L12.1644 15.2239C12.2428 15.2308 12.3219 15.2344 12.4022 15.2344ZM21.453 4.04202L20.41 3.00003C20.3734 2.96343 20.3237 2.94287 20.272 2.94287C20.2202 2.94287 20.1705 2.96343 20.1339 3.00003L17.4649 5.66971C15.9926 4.91727 14.3376 4.54105 12.4999 4.54105C7.80748 4.54105 4.30651 6.9849 1.99694 11.8726C1.9041 12.0692 1.85596 12.2839 1.85596 12.5013C1.85596 12.7186 1.9041 12.9333 1.99694 13.1299C2.91979 15.0738 4.03103 16.6318 5.33068 17.804L2.74791 20.3858C2.71131 20.4224 2.69075 20.4721 2.69075 20.5238C2.69075 20.5756 2.71131 20.6253 2.74791 20.6619L3.79015 21.7041C3.82677 21.7407 3.87643 21.7613 3.92821 21.7613C3.97999 21.7613 4.02965 21.7407 4.06627 21.7041L21.453 4.31839C21.4711 4.30025 21.4855 4.27871 21.4954 4.255C21.5052 4.23129 21.5103 4.20587 21.5103 4.18021C21.5103 4.15454 21.5052 4.12913 21.4954 4.10541C21.4855 4.0817 21.4711 4.06016 21.453 4.04202ZM8.10533 12.5C8.10526 11.7579 8.29743 11.0283 8.66311 10.3825C9.0288 9.73666 9.55552 9.19656 10.192 8.8148C10.8284 8.43304 11.5529 8.22265 12.2949 8.20411C13.0368 8.18557 13.7709 8.35952 14.4256 8.70902L13.2386 9.89603C12.7599 9.74275 12.2482 9.72429 11.7597 9.84268C11.2712 9.96106 10.8247 10.2117 10.4693 10.5672C10.1139 10.9226 9.86323 11.369 9.74485 11.8576C9.62646 12.3461 9.64492 12.8578 9.7982 13.3365L8.61119 14.5235C8.27809 13.9011 8.10429 13.2059 8.10533 12.5Z" fill="#C4C4C4"/>
<path d="M23.0029 11.8699C22.1435 10.06 21.1207 8.58415 19.9343 7.44238L16.4153 10.9617C16.7119 11.7371 16.7777 12.5818 16.6046 13.3938C16.4315 14.2058 16.027 14.9503 15.4399 15.5374C14.8529 16.1244 14.1084 16.5289 13.2964 16.702C12.4844 16.8751 11.6397 16.8093 10.8643 16.5127L7.87939 19.4976C9.26416 20.1384 10.8044 20.4588 12.5 20.4588C17.1924 20.4588 20.6934 18.0149 23.0029 13.1272C23.0958 12.9306 23.1439 12.7159 23.1439 12.4985C23.1439 12.2811 23.0958 12.0664 23.0029 11.8699Z" fill="#C4C4C4"/>
</svg>
