<svg width="30" height="30" viewBox="0 0 30 30" fill="none" xmlns="http://www.w3.org/2000/svg">
<path d="M17.1562 7.07823C16.3593 8.29698 14.2968 9.56261 12.4687 10.5001C12.5624 10.5939 12.7499 10.8751 12.8437 10.8751C13.3593 10.6407 13.8749 10.4532 14.3906 10.2189C15.4218 9.75011 16.4531 9.14073 17.3906 8.43761C19.2656 6.93761 19.9687 2.43761 21.3281 2.34386C22.1249 2.34386 22.8749 3.51573 23.4374 4.03136L24.2343 3.23448C24.2812 3.18761 23.6249 2.57823 23.5781 2.53136C22.7812 1.73448 21.8437 0.890731 20.5781 1.35948C18.8906 2.01573 18.0937 5.71886 17.1562 7.07823ZM21.5156 2.39073C21.5156 2.39073 21.5624 2.39073 21.5156 2.39073V2.39073ZM20.9062 2.48448C20.8593 2.48448 20.8593 2.48448 20.9062 2.48448V2.48448ZM1.07807 28.547C0.937446 28.7345 0.890571 28.922 0.984321 29.0157C1.07807 29.1095 1.31245 29.0626 1.45307 28.922L2.57807 28.1251L1.87495 27.422L1.07807 28.547Z" fill="#93A2AA"/>
<path d="M13.2656 12.3281L17.6719 16.7344L28.6406 5.01562L24.9844 1.35938L13.2656 12.3281Z" fill="#42ADE2"/>
<path d="M4.39307 21.9352L13.641 12.6877L17.287 16.3337L8.039 25.5812L4.39307 21.9352Z" fill="#42ADE2"/>
<path d="M1.5 27.0469L2.95313 28.5L8.0625 25.5937L4.40625 21.9375L1.5 27.0469ZM14.625 10.9688L19.0312 15.375L17.6719 16.7344L13.2656 12.3281L14.625 10.9688Z" fill="#C7D3D8"/>
<path d="M25.2188 1.59375L28.4062 4.78125C29.2969 3.89062 29.2969 2.48438 28.4062 1.59375C27.5156 0.703125 26.1094 0.703125 25.2188 1.59375Z" fill="#42ADE2"/>
<path d="M24.353 1.75681L25.0158 1.09399L28.9271 5.00524L28.2643 5.66806L24.353 1.75681Z" fill="#C7D3D8"/>
</svg>
