<svg width="51" height="57" viewBox="0 0 51 57" fill="none" xmlns="http://www.w3.org/2000/svg">
<path d="M50.4521 7.07998C48.6134 8.20083 46.6382 8.95815 44.5616 9.30046C46.7042 7.53678 48.3072 4.76095 49.0715 1.49092C47.0584 3.1358 44.8553 4.29361 42.5578 4.91403C41.0128 2.64467 38.9663 1.14051 36.7362 0.635059C34.5061 0.129613 32.2171 0.651168 30.2245 2.11875C28.232 3.58633 26.6474 5.91783 25.7167 8.75126C24.7861 11.5847 24.5615 14.7615 25.0778 17.7886C20.9989 17.5068 17.0086 16.0484 13.366 13.5079C9.72331 10.9674 6.50967 7.40158 3.93361 3.04192C3.05278 5.13214 2.54631 7.55559 2.54631 10.1366C2.54533 12.46 2.96125 14.7479 3.75717 16.7972C4.5531 18.8465 5.70442 20.5938 7.10898 21.8842C5.48006 21.8129 3.88708 21.2074 2.46263 20.1181V20.2999C2.46247 23.5586 3.28187 26.7171 4.7818 29.2393C6.28174 31.7616 8.36982 33.4923 10.6917 34.1377C9.18064 34.7003 7.59638 34.7832 6.0586 34.3801C6.7137 37.184 7.98979 39.636 9.70822 41.3927C11.4266 43.1494 13.5014 44.1229 15.642 44.1769C12.0082 48.101 7.52052 50.2297 2.90084 50.2203C2.08251 50.2206 1.26488 50.1549 0.452148 50.0234C5.14139 54.1711 10.6 56.3723 16.1749 56.3637C35.0465 56.3637 45.3632 34.8617 45.3632 16.2133C45.3632 15.6075 45.3522 14.9956 45.3324 14.3897C47.3391 12.3933 49.0713 9.92116 50.4477 7.08907L50.4521 7.07998Z" fill="white"/>
</svg>

